Coordinates
version=1
nRows=9
nColumns=24
inDegrees=yes

Units are S.I. units (second, meters, Newtons, ...)
Angles are in degrees.

endheader
time	pelvis_tilt	pelvis_list	pelvis_rotation	pelvis_tx	pelvis_ty	pelvis_tz	hip_flexion_r	hip_adduction_r	hip_rotation_r	knee_angle_r	ankle_angle_r	subtalar_angle_r	mtp_angle_r	hip_flexion_l	hip_adduction_l	hip_rotation_l	knee_angle_l	ankle_angle_l	subtalar_angle_l	mtp_angle_l	lumbar_extension	lumbar_bending	lumbar_rotation
      4.07500000	     -9.96134815	      1.02921658	     -0.30574310	     -1.86466556	     -0.02218855	     -0.69410549	     33.00069037	     -2.93634306	    -15.36970713	    -11.65791166	     -3.34803698	     -1.39383545	     11.94424326	     -4.56343067	      3.58826069	    -12.36625670	    -12.15697769	     11.26272292	      4.13404202	      5.86744110	      5.99558295	      0.87630588	     -8.14568898
      4.08000000	     -9.98501121	      0.89336143	     -0.15012948	     -1.85846309	     -0.02275697	     -0.69350435	     32.98205661	     -2.78033201	    -14.83925860	    -12.18766928	     -3.58448108	     -1.90067534	     11.67980851	     -4.65529268	      3.29220914	    -12.17701229	    -12.71604018	     11.06265566	      4.27629924	      5.83893668	      6.13600153	      1.04628930	     -8.37667689
      4.08500000	    -10.01953307	      0.77760531	     -0.11183730	     -1.85219686	     -0.02336190	     -0.69264410	     32.97539655	     -2.55585980	    -14.08447399	    -12.71488337	     -3.93971340	     -2.62111456	     11.21576266	     -4.73611980	      3.00642996	    -12.14698035	    -13.29134279	     10.85284414	      4.50639571	      5.78510247	      6.29643109	      1.19587143	     -8.46554324
      4.09000000	    -10.06214057	      0.62486843	     -0.13097835	     -1.84582599	     -0.02395932	     -0.69162229	     32.97397290	     -2.25419136	    -13.26935655	    -13.31702199	     -4.12422292	     -3.16420467	      9.22093687	     -4.78549305	      2.65576026	    -12.31436472	    -13.93117050	     10.68002943	      4.90955410	      5.71650890	      6.48019452	      1.38485078	     -8.49089334
      4.09500000	    -10.10599442	      0.46593595	     -0.03507609	     -1.83946088	     -0.02446190	     -0.69084241	     32.95217894	     -2.05838908	    -12.84104290	    -13.82633511	     -4.68130338	     -3.83982995	      9.00900212	     -4.81884471	      2.32274983	    -12.15713188	    -14.56134527	     10.34276618	      5.00725345	      5.68327281	      6.66411681	      1.57860777	     -8.64938712
      4.10000000	    -10.15151249	      0.32861566	     -0.08713075	     -1.83310589	     -0.02495846	     -0.68975375	     32.94916196	     -1.78317184	    -12.20435121	    -14.33360542	     -5.30936280	     -4.72913502	      8.35658105	     -4.82776979	      1.98809294	    -12.32692755	    -15.24573793	     10.01603778	      5.29880320	      5.64914604	      6.84248677	      1.75704494	     -8.64244267
      4.10500000	    -10.20900453	      0.12826823	     -0.04137982	     -1.82671252	     -0.02535601	     -0.68879005	     32.92741090	     -1.52450203	    -11.82475074	    -14.81607223	     -5.92578158	     -5.59119697	      7.58809556	     -4.77791336	      1.57983093	    -12.33732473	    -15.99807677	      9.63611476	      5.49225730	      5.63109051	      7.04157367	      1.98926680	     -8.73516736
      4.11000000	    -10.27819052	     -0.08661012	     -0.03685987	     -1.82028943	     -0.02568927	     -0.68778521	     32.92068494	     -1.24427301	    -11.49510983	    -15.30166635	     -6.53116782	     -6.48757167	      6.66236207	     -4.69714459	      1.15489075	    -12.39071835	    -16.77928792	      9.20609352	      5.66940381	      5.61425170	      7.25671030	      2.24946188	     -8.78446668
      4.11500000	    -10.36147927	     -0.33939875	     -0.12665918	     -1.81382280	     -0.02598741	     -0.68665080	     32.93013470	     -0.87591545	    -11.09272658	    -15.81165901	     -6.98913913	     -7.35326570	      5.06018793	     -4.58005402	      0.68175561	    -12.56769006	    -17.61284123	      8.75661937	      5.85027676	      5.64802060	      7.48936905	      2.56719221	     -8.72186473
